<svg xmlns="http://www.w3.org/2000/svg" viewBox="0 0 810 730">
  <defs>
    <linearGradient id="veltroPurple" x1="0%" y1="0%" x2="100%" y2="100%">
      <stop offset="0%" stop-color="#9B6DF0"/>
      <stop offset="100%" stop-color="#4B2FCB"/>
    </linearGradient>
  </defs>
  <g transform="translate(0,730) scale(0.1,-0.1)">
    <path d="M7385 6826 c-245 -75 -943 -345 -1447 -560 -939 -401 -1465 -697
-1722 -967 -302 -317 -593 -1052 -790 -1994 -60 -286 -123 -671 -112 -683 7
-7 1 -16 76 108 267 441 603 817 978 1096 164 122 163 122 297 206 353 222
678 384 1340 673 639 278 611 254 975 839 241 387 569 935 627 1044 57 109 59
164 9 219 -44 49 -113 54 -231 19z M610 5431 c-69 -25 -134 -90 -150 -152 -37
-134 20 -278 353 -899 60 -113 163 -306 229 -430 67 -124 133 -247 148 -275
29 -54 93 -173 160 -300 23 -44 103 -195 178 -335 74 -140 208 -392 297 -560
89 -168 197 -372 240 -455 43 -82 110 -211 150 -285 40 -74 157 -295 260 -490
253 -480 299 -560 364 -632 184 -203 449 -225 638 -54 195 176 940 1217 1870
2611 547 822 603 911 603 970 0 106 -122 82 -477 -95 -462 -229 -850 -499
-1177 -819 -291 -286 -499 -553 -796 -1024 -149 -236 -208 -282 -360 -281
-102 0 -161 26 -227 97 -78 85 -94 181 -173 1082 -72 824 -93 1002 -136 1165
-61 236 -183 404 -443 609 -340 269 -733 465 -1086 541 -149 32 -390 38 -465
11z" fill="url(#veltroPurple)"/>
  </g>
</svg>
